<mxfile host="app.diagrams.net" agent="Mozilla/5.0 (X11; Linux x86_64; rv:133.0) Gecko/20100101 Firefox/133.0" version="25.0.3">
  <diagram name="Página-1" id="JKtnwv-868520P_L_gef">
    <mxGraphModel dx="3235" dy="2630" grid="1" gridSize="10" guides="1" tooltips="1" connect="1" arrows="1" fold="1" page="1" pageScale="1" pageWidth="850" pageHeight="1100" math="0" shadow="0">
      <root>
        <mxCell id="0" />
        <mxCell id="1" parent="0" />
        <mxCell id="HL4pXk9f4R4LrqItIjiN-1" value="&lt;div&gt;DIRECCIÓN DE DESARROLLO DE PLATAFORMAS MÓVILES &lt;br&gt;&lt;/div&gt;&lt;div&gt;&lt;br&gt;&lt;/div&gt;&lt;div&gt;EFREN JASSO VALDEZ&lt;/div&gt;" style="rounded=0;whiteSpace=wrap;html=1;" vertex="1" parent="1">
          <mxGeometry x="762" y="-104" width="167" height="78" as="geometry" />
        </mxCell>
        <mxCell id="HL4pXk9f4R4LrqItIjiN-2" value="&lt;div&gt;SUBDIRECCIÓN DE DESARROLLO TECNOLÓGICO C&lt;/div&gt;&lt;div&gt;&lt;br&gt;&lt;/div&gt;JONATHAN DANIEL CRUZ RABADAN" style="rounded=0;whiteSpace=wrap;html=1;" vertex="1" parent="1">
          <mxGeometry x="517" y="-1" width="167" height="96" as="geometry" />
        </mxCell>
        <mxCell id="HL4pXk9f4R4LrqItIjiN-3" value="&lt;div&gt;SUBDIRECCIÓN DE DESARROLLO TECNOLÓGICO A&lt;/div&gt;&lt;div&gt;&lt;br&gt;&lt;/div&gt;ERIK DOMINGUEZ BUENDIA" style="rounded=0;whiteSpace=wrap;html=1;" vertex="1" parent="1">
          <mxGeometry x="31" y="1" width="167" height="95" as="geometry" />
        </mxCell>
        <mxCell id="HL4pXk9f4R4LrqItIjiN-4" value="&lt;div&gt;JEFATURA DE UNIDAD DEPARTAMENTAL DE CONTROL DE SOFTWARE B&lt;/div&gt;&lt;div&gt;&lt;br&gt;&lt;/div&gt;&lt;div&gt;&amp;nbsp;VACANTE&lt;/div&gt;" style="rounded=0;whiteSpace=wrap;html=1;" vertex="1" parent="1">
          <mxGeometry x="-119" y="125" width="120" height="125" as="geometry" />
        </mxCell>
        <mxCell id="HL4pXk9f4R4LrqItIjiN-5" value="&lt;div&gt;SUBDIRECCIÓN DE CONTROL DE DESARROLLO DE SOFTWARE&lt;/div&gt;&lt;div&gt;&lt;br&gt;&lt;/div&gt;&lt;div&gt;FERNANDO MAXIMO SANCHEZ LOPEZ&lt;br&gt;&lt;/div&gt;" style="rounded=0;whiteSpace=wrap;html=1;" vertex="1" parent="1">
          <mxGeometry x="-211" y="-1" width="167" height="95" as="geometry" />
        </mxCell>
        <mxCell id="HL4pXk9f4R4LrqItIjiN-6" value="&lt;div&gt;JEFATURA DE UNIDAD DEPARTAMENTAL DE CONTROL DE SOFTWARE A &lt;br&gt;&lt;/div&gt;&lt;div&gt;&lt;br&gt;&lt;/div&gt;DIANA GABRIELA PEREZ GUZMAN" style="rounded=0;whiteSpace=wrap;html=1;" vertex="1" parent="1">
          <mxGeometry x="-257" y="125" width="120" height="125" as="geometry" />
        </mxCell>
        <mxCell id="HL4pXk9f4R4LrqItIjiN-7" value="LÍDER COORDINADOR DE PROYECTO DE GESTIÓN DE SOFTWARE A&lt;br&gt;&lt;br&gt;MARIA FERNANDA CELAYA HERNANDEZ" style="rounded=0;whiteSpace=wrap;html=1;" vertex="1" parent="1">
          <mxGeometry x="-257" y="283" width="120" height="134" as="geometry" />
        </mxCell>
        <mxCell id="HL4pXk9f4R4LrqItIjiN-8" value="&lt;div&gt;ENLACE DE SERVICIOS TIC&lt;br&gt;VACANTE&lt;br&gt;&lt;/div&gt;" style="rounded=0;whiteSpace=wrap;html=1;" vertex="1" parent="1">
          <mxGeometry x="-257" y="447" width="120" height="60" as="geometry" />
        </mxCell>
        <mxCell id="HL4pXk9f4R4LrqItIjiN-9" value="LÍDER COORDINADOR DE PROYECTO DE GESTIÓN DE SOFTWARE B&lt;br&gt;&lt;br&gt;RODRIGO CAMACHO LOPEZ" style="rounded=0;whiteSpace=wrap;html=1;" vertex="1" parent="1">
          <mxGeometry x="-119" y="284" width="120" height="134" as="geometry" />
        </mxCell>
        <mxCell id="HL4pXk9f4R4LrqItIjiN-10" value="&lt;div&gt;SUBDIRECCIÓN DE DESARROLLO TECNOLÓGICO B&lt;/div&gt;&lt;div&gt;&lt;br&gt;&lt;/div&gt;DANIEL MARTINEZ SANCHEZ" style="rounded=0;whiteSpace=wrap;html=1;" vertex="1" parent="1">
          <mxGeometry x="273" y="-1" width="167" height="95" as="geometry" />
        </mxCell>
        <mxCell id="HL4pXk9f4R4LrqItIjiN-11" value="&lt;div&gt;JEFATURA DE UNIDAD DEPARTAMENTAL DE SERVICIOS WEB A&lt;/div&gt;&lt;div&gt;&lt;br&gt;&lt;/div&gt;JOSE OSCAR OSORIO GONZALEZ" style="rounded=0;whiteSpace=wrap;html=1;" vertex="1" parent="1">
          <mxGeometry x="54.5" y="123.07" width="120" height="125" as="geometry" />
        </mxCell>
        <mxCell id="HL4pXk9f4R4LrqItIjiN-12" value="JEFATURA DE UNIDAD DEPARTAMENTAL DE SERVICIOS WEB B&lt;br&gt;LUIS ANGEL GUAJARDO TREJO" style="rounded=0;whiteSpace=wrap;html=1;" vertex="1" parent="1">
          <mxGeometry x="296.5" y="124.07" width="120" height="125" as="geometry" />
        </mxCell>
        <mxCell id="HL4pXk9f4R4LrqItIjiN-13" value="&lt;div&gt;JEFATURA DE UNIDAD DEPARTAMENTAL DE SERVICIOS WEB C&lt;/div&gt;&lt;div&gt;&lt;br&gt;&lt;/div&gt;LUIS ANGEL GUAJARDO TREJO" style="rounded=0;whiteSpace=wrap;html=1;" vertex="1" parent="1">
          <mxGeometry x="540.5" y="123.07" width="120" height="125" as="geometry" />
        </mxCell>
        <mxCell id="HL4pXk9f4R4LrqItIjiN-14" value="&lt;div&gt;LÍDER COORDINADOR DE PROYECTOS DE DISEÑO DE APLICACIONES&lt;/div&gt;&lt;div&gt;&lt;br&gt;&lt;/div&gt;&lt;div&gt;NAYELLY MAURI CRUZ&lt;br&gt;&lt;/div&gt;" style="rounded=0;whiteSpace=wrap;html=1;" vertex="1" parent="1">
          <mxGeometry x="1032.25" y="288.47" width="120" height="134" as="geometry" />
        </mxCell>
        <mxCell id="HL4pXk9f4R4LrqItIjiN-15" value="DIRECCIÓN EJECUTIVA DE INFRAESTRUCTURA TECNOLÓGICA&lt;br&gt;&lt;br&gt;RODRIGO GOMEZ VIZCAINO" style="rounded=0;whiteSpace=wrap;html=1;" vertex="1" parent="1">
          <mxGeometry x="1252" y="-104" width="167" height="78" as="geometry" />
        </mxCell>
        <mxCell id="HL4pXk9f4R4LrqItIjiN-16" value="SUBDIRECIÓN DE GESTIÓN DE INFRAESTRUCTURA DE LAS TIC&#39;S&lt;br&gt;&lt;br&gt;JOSE JUAN MIGUEL LOPEZ" style="rounded=0;whiteSpace=wrap;html=1;" vertex="1" parent="1">
          <mxGeometry x="1252" y="1" width="167" height="96" as="geometry" />
        </mxCell>
        <mxCell id="HL4pXk9f4R4LrqItIjiN-17" value="JEFATURA DE UNIDAD DEPARTAMENTAL DE ADMINISTRACIÓN DE SISTEMAS&lt;br&gt;&lt;br&gt;FERNANDO REBOLLO ENRIQUEZ" style="rounded=0;whiteSpace=wrap;html=1;" vertex="1" parent="1">
          <mxGeometry x="1272.75" y="125" width="125.5" height="125" as="geometry" />
        </mxCell>
        <mxCell id="HL4pXk9f4R4LrqItIjiN-18" value="SUBDIRECIÓN DE ANÁLISIS, DISEÑO Y CALIDAD EN DESARROLLO TECNOLÓGICO&lt;br&gt;&lt;br&gt;JESUS GUSTAVO GONZALEZ GONZALEZ" style="rounded=0;whiteSpace=wrap;html=1;" vertex="1" parent="1">
          <mxGeometry x="1495" y="4" width="177" height="95" as="geometry" />
        </mxCell>
        <mxCell id="HL4pXk9f4R4LrqItIjiN-19" value="LÍDER COORDINADOR DE PROYECTOS DE ADMINISTRACIÓN DE SISTEMAS&lt;br&gt;&lt;br&gt;VACANTE" style="rounded=0;whiteSpace=wrap;html=1;" vertex="1" parent="1">
          <mxGeometry x="1518.5" y="283.99999999999994" width="120" height="134" as="geometry" />
        </mxCell>
        <mxCell id="HL4pXk9f4R4LrqItIjiN-20" value="" style="endArrow=none;html=1;rounded=0;fontSize=12;startSize=8;endSize=8;curved=1;" edge="1" parent="1">
          <mxGeometry width="50" height="50" relative="1" as="geometry">
            <mxPoint x="-129" y="-208" as="sourcePoint" />
            <mxPoint x="481" y="-208" as="targetPoint" />
          </mxGeometry>
        </mxCell>
        <mxCell id="HL4pXk9f4R4LrqItIjiN-21" value="" style="endArrow=none;html=1;rounded=0;fontSize=12;startSize=8;endSize=8;curved=1;" edge="1" parent="1">
          <mxGeometry width="50" height="50" relative="1" as="geometry">
            <mxPoint x="1335" y="-208" as="sourcePoint" />
            <mxPoint x="483" y="-208" as="targetPoint" />
          </mxGeometry>
        </mxCell>
        <mxCell id="HL4pXk9f4R4LrqItIjiN-22" value="" style="endArrow=none;html=1;rounded=0;fontSize=12;startSize=8;endSize=8;curved=1;exitX=0.5;exitY=0;exitDx=0;exitDy=0;" edge="1" parent="1" source="HL4pXk9f4R4LrqItIjiN-15">
          <mxGeometry width="50" height="50" relative="1" as="geometry">
            <mxPoint x="788" y="348" as="sourcePoint" />
            <mxPoint x="1336" y="-207" as="targetPoint" />
          </mxGeometry>
        </mxCell>
        <mxCell id="HL4pXk9f4R4LrqItIjiN-23" value="DIRECCIÓN GENERAL DE OPERACIÓN TECNOLÓGICA HORACIO LÓPEZ JUSTINIANO" style="rounded=0;whiteSpace=wrap;html=1;" vertex="1" parent="1">
          <mxGeometry x="517" y="-352" width="167" height="80" as="geometry" />
        </mxCell>
        <mxCell id="HL4pXk9f4R4LrqItIjiN-24" value="" style="endArrow=none;html=1;rounded=0;fontSize=12;startSize=8;endSize=8;curved=1;exitX=0.5;exitY=0;exitDx=0;exitDy=0;" edge="1" parent="1" source="HL4pXk9f4R4LrqItIjiN-5">
          <mxGeometry width="50" height="50" relative="1" as="geometry">
            <mxPoint x="763" y="348" as="sourcePoint" />
            <mxPoint x="-127" y="-210" as="targetPoint" />
          </mxGeometry>
        </mxCell>
        <mxCell id="HL4pXk9f4R4LrqItIjiN-25" value="" style="endArrow=none;html=1;rounded=0;fontSize=12;startSize=8;endSize=8;curved=1;exitX=0.5;exitY=0;exitDx=0;exitDy=0;" edge="1" parent="1">
          <mxGeometry width="50" height="50" relative="1" as="geometry">
            <mxPoint x="113.25" y="-1" as="sourcePoint" />
            <mxPoint x="113.25" y="-210" as="targetPoint" />
          </mxGeometry>
        </mxCell>
        <mxCell id="HL4pXk9f4R4LrqItIjiN-26" value="" style="endArrow=none;html=1;rounded=0;fontSize=12;startSize=8;endSize=8;curved=1;exitX=0.5;exitY=0;exitDx=0;exitDy=0;" edge="1" parent="1">
          <mxGeometry width="50" height="50" relative="1" as="geometry">
            <mxPoint x="353" y="-1" as="sourcePoint" />
            <mxPoint x="353" y="-210" as="targetPoint" />
          </mxGeometry>
        </mxCell>
        <mxCell id="HL4pXk9f4R4LrqItIjiN-27" value="" style="endArrow=none;html=1;rounded=0;fontSize=12;startSize=8;endSize=8;curved=1;exitX=0.5;exitY=0;exitDx=0;exitDy=0;" edge="1" parent="1">
          <mxGeometry width="50" height="50" relative="1" as="geometry">
            <mxPoint x="600.25" y="1" as="sourcePoint" />
            <mxPoint x="600.25" y="-208" as="targetPoint" />
          </mxGeometry>
        </mxCell>
        <mxCell id="HL4pXk9f4R4LrqItIjiN-28" value="" style="endArrow=none;html=1;rounded=0;fontSize=12;startSize=8;endSize=8;curved=1;exitX=0.493;exitY=0.026;exitDx=0;exitDy=0;exitPerimeter=0;" edge="1" parent="1" source="HL4pXk9f4R4LrqItIjiN-1">
          <mxGeometry width="50" height="50" relative="1" as="geometry">
            <mxPoint x="844" y="-105" as="sourcePoint" />
            <mxPoint x="844.25" y="-208" as="targetPoint" />
          </mxGeometry>
        </mxCell>
        <mxCell id="HL4pXk9f4R4LrqItIjiN-29" value="" style="endArrow=none;html=1;rounded=0;fontSize=12;startSize=8;endSize=8;curved=1;entryX=0.5;entryY=1;entryDx=0;entryDy=0;exitX=0.517;exitY=0;exitDx=0;exitDy=0;exitPerimeter=0;" edge="1" parent="1" source="HL4pXk9f4R4LrqItIjiN-6" target="HL4pXk9f4R4LrqItIjiN-5">
          <mxGeometry width="50" height="50" relative="1" as="geometry">
            <mxPoint x="585" y="180" as="sourcePoint" />
            <mxPoint x="635" y="130" as="targetPoint" />
          </mxGeometry>
        </mxCell>
        <mxCell id="HL4pXk9f4R4LrqItIjiN-30" value="" style="endArrow=none;html=1;rounded=0;fontSize=12;startSize=8;endSize=8;curved=1;entryX=0.533;entryY=0;entryDx=0;entryDy=0;entryPerimeter=0;" edge="1" parent="1" target="HL4pXk9f4R4LrqItIjiN-4">
          <mxGeometry width="50" height="50" relative="1" as="geometry">
            <mxPoint x="-127" y="93" as="sourcePoint" />
            <mxPoint x="635" y="130" as="targetPoint" />
          </mxGeometry>
        </mxCell>
        <mxCell id="HL4pXk9f4R4LrqItIjiN-31" value="" style="endArrow=none;html=1;rounded=0;fontSize=12;startSize=8;endSize=8;curved=1;entryX=0.5;entryY=1;entryDx=0;entryDy=0;exitX=0.5;exitY=0;exitDx=0;exitDy=0;" edge="1" parent="1" source="HL4pXk9f4R4LrqItIjiN-11" target="HL4pXk9f4R4LrqItIjiN-3">
          <mxGeometry width="50" height="50" relative="1" as="geometry">
            <mxPoint x="585" y="180" as="sourcePoint" />
            <mxPoint x="635" y="130" as="targetPoint" />
          </mxGeometry>
        </mxCell>
        <mxCell id="HL4pXk9f4R4LrqItIjiN-32" value="" style="endArrow=none;html=1;rounded=0;fontSize=12;startSize=8;endSize=8;curved=1;entryX=0.5;entryY=1;entryDx=0;entryDy=0;exitX=0.5;exitY=0;exitDx=0;exitDy=0;" edge="1" parent="1" source="HL4pXk9f4R4LrqItIjiN-12" target="HL4pXk9f4R4LrqItIjiN-10">
          <mxGeometry width="50" height="50" relative="1" as="geometry">
            <mxPoint x="585" y="180" as="sourcePoint" />
            <mxPoint x="635" y="130" as="targetPoint" />
          </mxGeometry>
        </mxCell>
        <mxCell id="HL4pXk9f4R4LrqItIjiN-33" value="" style="endArrow=none;html=1;rounded=0;fontSize=12;startSize=8;endSize=8;curved=1;entryX=0.5;entryY=1;entryDx=0;entryDy=0;exitX=0.5;exitY=0;exitDx=0;exitDy=0;" edge="1" parent="1" source="HL4pXk9f4R4LrqItIjiN-13" target="HL4pXk9f4R4LrqItIjiN-2">
          <mxGeometry width="50" height="50" relative="1" as="geometry">
            <mxPoint x="585" y="180" as="sourcePoint" />
            <mxPoint x="635" y="130" as="targetPoint" />
          </mxGeometry>
        </mxCell>
        <mxCell id="HL4pXk9f4R4LrqItIjiN-34" value="" style="endArrow=none;html=1;rounded=0;fontSize=12;startSize=8;endSize=8;curved=1;entryX=0.5;entryY=1;entryDx=0;entryDy=0;exitX=0.5;exitY=0;exitDx=0;exitDy=0;" edge="1" parent="1" source="HL4pXk9f4R4LrqItIjiN-7" target="HL4pXk9f4R4LrqItIjiN-6">
          <mxGeometry width="50" height="50" relative="1" as="geometry">
            <mxPoint x="585" y="180" as="sourcePoint" />
            <mxPoint x="635" y="130" as="targetPoint" />
          </mxGeometry>
        </mxCell>
        <mxCell id="HL4pXk9f4R4LrqItIjiN-35" value="" style="endArrow=none;html=1;rounded=0;fontSize=12;startSize=8;endSize=8;curved=1;exitX=0.5;exitY=1;exitDx=0;exitDy=0;entryX=0.5;entryY=0;entryDx=0;entryDy=0;" edge="1" parent="1" source="HL4pXk9f4R4LrqItIjiN-7" target="HL4pXk9f4R4LrqItIjiN-8">
          <mxGeometry width="50" height="50" relative="1" as="geometry">
            <mxPoint x="585" y="180" as="sourcePoint" />
            <mxPoint x="635" y="130" as="targetPoint" />
          </mxGeometry>
        </mxCell>
        <mxCell id="HL4pXk9f4R4LrqItIjiN-36" value="" style="endArrow=none;html=1;rounded=0;fontSize=12;startSize=8;endSize=8;curved=1;entryX=0.5;entryY=1;entryDx=0;entryDy=0;exitX=0.5;exitY=0;exitDx=0;exitDy=0;" edge="1" parent="1" source="HL4pXk9f4R4LrqItIjiN-9" target="HL4pXk9f4R4LrqItIjiN-4">
          <mxGeometry width="50" height="50" relative="1" as="geometry">
            <mxPoint x="585" y="180" as="sourcePoint" />
            <mxPoint x="635" y="130" as="targetPoint" />
          </mxGeometry>
        </mxCell>
        <mxCell id="HL4pXk9f4R4LrqItIjiN-37" value="" style="endArrow=none;html=1;rounded=0;fontSize=12;startSize=8;endSize=8;curved=1;entryX=0.5;entryY=1;entryDx=0;entryDy=0;exitX=0.5;exitY=0;exitDx=0;exitDy=0;" edge="1" parent="1" source="HL4pXk9f4R4LrqItIjiN-16" target="HL4pXk9f4R4LrqItIjiN-15">
          <mxGeometry width="50" height="50" relative="1" as="geometry">
            <mxPoint x="1238" y="180" as="sourcePoint" />
            <mxPoint x="1288" y="130" as="targetPoint" />
          </mxGeometry>
        </mxCell>
        <mxCell id="HL4pXk9f4R4LrqItIjiN-38" value="" style="endArrow=none;html=1;rounded=0;fontSize=12;startSize=8;endSize=8;curved=1;exitX=0.5;exitY=0;exitDx=0;exitDy=0;entryX=0.5;entryY=1;entryDx=0;entryDy=0;" edge="1" parent="1" target="HL4pXk9f4R4LrqItIjiN-15">
          <mxGeometry width="50" height="50" relative="1" as="geometry">
            <mxPoint x="1092.0000000000005" as="sourcePoint" />
            <mxPoint x="1333" y="-22" as="targetPoint" />
          </mxGeometry>
        </mxCell>
        <mxCell id="HL4pXk9f4R4LrqItIjiN-39" value="" style="endArrow=none;html=1;rounded=0;fontSize=12;startSize=8;endSize=8;curved=1;entryX=0.5;entryY=1;entryDx=0;entryDy=0;exitX=0.5;exitY=0;exitDx=0;exitDy=0;" edge="1" parent="1" source="HL4pXk9f4R4LrqItIjiN-18" target="HL4pXk9f4R4LrqItIjiN-15">
          <mxGeometry width="50" height="50" relative="1" as="geometry">
            <mxPoint x="1238" y="180" as="sourcePoint" />
            <mxPoint x="1288" y="130" as="targetPoint" />
          </mxGeometry>
        </mxCell>
        <mxCell id="HL4pXk9f4R4LrqItIjiN-40" value="" style="endArrow=none;html=1;rounded=0;fontSize=12;startSize=8;endSize=8;curved=1;entryX=0.5;entryY=1;entryDx=0;entryDy=0;exitX=0.5;exitY=0;exitDx=0;exitDy=0;" edge="1" parent="1" source="HL4pXk9f4R4LrqItIjiN-17" target="HL4pXk9f4R4LrqItIjiN-16">
          <mxGeometry width="50" height="50" relative="1" as="geometry">
            <mxPoint x="1238" y="180" as="sourcePoint" />
            <mxPoint x="1288" y="130" as="targetPoint" />
          </mxGeometry>
        </mxCell>
        <mxCell id="HL4pXk9f4R4LrqItIjiN-41" value="" style="endArrow=none;html=1;rounded=0;fontSize=12;startSize=8;endSize=8;curved=1;entryX=0.5;entryY=1;entryDx=0;entryDy=0;exitX=0.5;exitY=0;exitDx=0;exitDy=0;" edge="1" parent="1" source="HL4pXk9f4R4LrqItIjiN-14">
          <mxGeometry width="50" height="50" relative="1" as="geometry">
            <mxPoint x="1238" y="180" as="sourcePoint" />
            <mxPoint x="1092.0000000000005" y="95.99999999999977" as="targetPoint" />
          </mxGeometry>
        </mxCell>
        <mxCell id="HL4pXk9f4R4LrqItIjiN-42" value="" style="endArrow=none;html=1;rounded=0;fontSize=12;startSize=8;endSize=8;curved=1;entryX=0.5;entryY=1;entryDx=0;entryDy=0;exitX=0.5;exitY=0;exitDx=0;exitDy=0;" edge="1" parent="1" source="HL4pXk9f4R4LrqItIjiN-19" target="HL4pXk9f4R4LrqItIjiN-18">
          <mxGeometry width="50" height="50" relative="1" as="geometry">
            <mxPoint x="1238" y="180" as="sourcePoint" />
            <mxPoint x="1288" y="130" as="targetPoint" />
          </mxGeometry>
        </mxCell>
        <mxCell id="HL4pXk9f4R4LrqItIjiN-43" value="" style="endArrow=none;html=1;rounded=0;fontSize=12;startSize=8;endSize=8;curved=1;entryX=0.5;entryY=1;entryDx=0;entryDy=0;" edge="1" parent="1">
          <mxGeometry width="50" height="50" relative="1" as="geometry">
            <mxPoint x="600" y="-205" as="sourcePoint" />
            <mxPoint x="599.5000000000005" y="-272" as="targetPoint" />
          </mxGeometry>
        </mxCell>
        <mxCell id="HL4pXk9f4R4LrqItIjiN-44" value="&lt;div&gt;SUBDIRECIÓN DE GESTIÓN DE APLICACIONES&lt;/div&gt;&lt;div&gt;&lt;br&gt;&lt;/div&gt;&lt;div&gt;MIGUEL ANGLE GUZMAN PEREZ&lt;br&gt;&lt;/div&gt;" style="rounded=0;whiteSpace=wrap;html=1;" vertex="1" parent="1">
          <mxGeometry x="1008.75" y="1" width="167" height="96" as="geometry" />
        </mxCell>
      </root>
    </mxGraphModel>
  </diagram>
</mxfile>
